<svg width="69" height="60" viewBox="0 0 69 60" fill="none" xmlns="http://www.w3.org/2000/svg">
<path d="M55 18.6066V42V44.0762C55 44.7279 54.3867 45.2054 53.7549 45.0457L41.8305 42.0305C41.7504 42.0103 41.668 42 41.5854 42H18.5932C17.375 42 16.2067 41.5147 15.3453 40.6508C14.4839 39.7869 14 38.6152 14 37.3934V18.6066C14 17.3848 14.4839 16.2131 15.3453 15.3492C16.2067 14.4853 17.375 14 18.5932 14H50.4068C51.625 14 52.7933 14.4853 53.6547 15.3492C54.5161 16.2131 55 17.3848 55 18.6066Z" stroke="#056D7B" stroke-width="2" stroke-linecap="round" stroke-linejoin="round"/>
<ellipse cx="26.8689" cy="27.8689" rx="1.86885" ry="1.86885" fill="#056D7B"/>
<ellipse cx="34.3443" cy="27.8689" rx="1.86885" ry="1.86885" fill="#056D7B"/>
<ellipse cx="41.8197" cy="27.8689" rx="1.86885" ry="1.86885" fill="#056D7B"/>
</svg>
