<svg width="32" height="32" viewBox="0 0 32 32" fill="none" xmlns="http://www.w3.org/2000/svg">
<path d="M21.3333 4H10.6667C6.9848 4 4 6.9848 4 10.6667V21.3333C4 25.0152 6.9848 28 10.6667 28H21.3333C25.0152 28 28 25.0152 28 21.3333V10.6667C28 6.9848 25.0152 4 21.3333 4Z" stroke="#2B2732" stroke-width="1.5" stroke-miterlimit="10"/>
<path d="M20.5 16.0002C20.5 13.5148 18.4853 11.5002 16 11.5002C13.5147 11.5002 11.5 13.5148 11.5 16.0002C11.5 18.4855 13.5147 20.5002 16 20.5002C18.4853 20.5002 20.5 18.4855 20.5 16.0002ZM23.1667 9.7495C23.1667 9.24363 22.7552 8.8335 22.2493 8.8335C22.0064 8.8335 21.7734 8.93 21.6016 9.10179C21.4298 9.27357 21.3333 9.50656 21.3333 9.7495V9.75083C21.3333 10.2567 21.7448 10.6668 22.2507 10.6668C22.4936 10.6668 22.7266 10.5703 22.8984 10.3985C23.0702 10.2268 23.1667 9.99377 23.1667 9.75083V9.7495V9.7495Z" stroke="#2B2732" stroke-width="1.5" stroke-miterlimit="10"/>
</svg>
