<svg width="90" height="90" viewBox="0 0 90 90" fill="none" xmlns="http://www.w3.org/2000/svg">
<path d="M33.75 41.25L45 30L33.75 41.25ZM45 30L56.25 41.25L45 30ZM45 30V60V30ZM45 11.25C49.4321 11.25 53.8208 12.123 57.9156 13.8191C62.0103 15.5152 65.7309 18.0012 68.8649 21.1351C71.9988 24.2691 74.4848 27.9897 76.1809 32.0844C77.877 36.1792 78.75 40.5679 78.75 45C78.75 49.4321 77.877 53.8208 76.1809 57.9156C74.4848 62.0103 71.9988 65.7309 68.8649 68.8649C65.7309 71.9988 62.0103 74.4848 57.9156 76.1809C53.8208 77.877 49.4321 78.75 45 78.75C36.0489 78.75 27.4645 75.1942 21.1351 68.8649C14.8058 62.5355 11.25 53.9511 11.25 45C11.25 36.0489 14.8058 27.4645 21.1351 21.1351C27.4645 14.8058 36.0489 11.25 45 11.25V11.25Z" stroke="#7E7B82" stroke-linecap="round" stroke-linejoin="round"/>
</svg>
