<svg width="70" height="68" viewBox="0 0 70 68" fill="none" xmlns="http://www.w3.org/2000/svg">
<path d="M19 24C16.2386 24 14 21.7614 14 19C14 16.2386 16.2386 14 19 14C21.7614 14 24 16.2386 24 19C24 20.7382 23.1139 22.2698 21.7641 23.1673C20.9728 23.6934 20.0237 24 19 24Z" stroke="#056D7B" stroke-width="2"/>
<path d="M19 44C16.2386 44 14 41.7614 14 39C14 36.2386 16.2386 34 19 34C21.7614 34 24 36.2386 24 39C24 40.7382 23.1139 42.2698 21.7641 43.1673C20.9728 43.6934 20.0237 44 19 44Z" stroke="#056D7B" stroke-width="2"/>
<path d="M51 54C48.2386 54 46 51.7614 46 49C46 46.2386 48.2386 44 51 44C53.7614 44 56 46.2386 56 49C56 50.7382 55.1139 52.2698 53.7641 53.1673C52.9728 53.6934 52.0237 54 51 54Z" stroke="#056D7B" stroke-width="2"/>
<path d="M19 24V34M24 39H51V44.5" stroke="#056D7B" stroke-width="2"/>
</svg>
