<svg width="70" height="70" viewBox="0 0 70 70" fill="none" xmlns="http://www.w3.org/2000/svg">
<path d="M27.5774 33.347L32.0764 37.6009C32.1968 37.7147 32.2897 37.8591 32.3375 38.0192C33.5876 42.2038 30.2998 44.4168 28.4858 44.4869C26.3352 44.5701 25.0832 42.9852 20.6993 46.5905C20.0232 47.1466 18.9705 46.6747 18.9784 45.7882C19.0477 38.0311 19.5426 33.8789 26.8136 33.0861C27.0912 33.0558 27.3725 33.1532 27.5774 33.347Z" stroke="#056D7B" stroke-width="2"/>
<path d="M47.3664 22.005C50.8455 18.1768 45.0072 12.6566 41.5281 16.4848L31.7628 27.8138L27.8919 32.3045C27.5378 32.7153 27.5695 33.3395 27.9634 33.7119L31.552 37.1051C31.9459 37.4775 32.5585 37.4625 32.9333 37.0713L37.0304 32.7944L47.3664 22.005Z" stroke="#056D7B" stroke-width="2"/>
<rect x="15.2891" y="54" width="41.1765" height="2" rx="1" fill="#056D7B"/>
</svg>
