<svg width="143" height="42" viewBox="0 0 143 42" fill="none" xmlns="http://www.w3.org/2000/svg">
<path fill-rule="evenodd" clip-rule="evenodd" d="M94.5278 25.5687H100.09V1.12737L90.3004 2.26949L90.5227 7.29481H94.5278V25.5687Z" fill="#11A083"/>
<path fill-rule="evenodd" clip-rule="evenodd" d="M28.2246 40.8729H29.5596V34.7055H31.7846V33.5634H25.9996V34.7055H28.2246V40.8729Z" fill="#056D7B"/>
<path fill-rule="evenodd" clip-rule="evenodd" d="M35.1228 40.8729H40.4628V39.7308H36.4578V37.675H39.7953V36.5329H36.4578V34.7055H40.4628V33.5634H35.1228V40.8729Z" fill="#056D7B"/>
<path fill-rule="evenodd" clip-rule="evenodd" d="M47.1371 40.8729C48.4721 40.8729 49.3621 40.4161 50.0296 39.7308L49.1396 38.8171C48.6946 39.5024 48.0271 39.7308 47.1371 39.7308C45.8021 39.7308 44.9121 38.5887 44.9121 37.2181C44.9121 35.8476 45.8021 34.7055 47.1371 34.7055C48.0271 34.7055 48.6946 34.9339 49.1396 35.6192L50.0296 34.7055C49.3621 34.0202 48.4721 33.5634 47.1371 33.5634C45.1346 33.5634 43.5771 35.1623 43.5771 37.2181C43.5771 39.274 45.1346 40.8729 47.1371 40.8729Z" fill="#056D7B"/>
<path fill-rule="evenodd" clip-rule="evenodd" d="M53.3671 40.8729H54.702V37.9034H58.0396V40.8729H59.1523V33.5634H58.0396V36.5329H54.702V33.5634H53.3671V40.8729Z" fill="#056D7B"/>
<path fill-rule="evenodd" clip-rule="evenodd" d="M63.1569 40.8729H64.2696V35.6192L68.2746 40.8729H69.1645V33.5634H68.0523V38.5887L64.2696 33.5634H63.1569V40.8729Z" fill="#056D7B"/>
<path fill-rule="evenodd" clip-rule="evenodd" d="M76.5072 40.8729C78.5097 40.8729 80.0671 39.274 80.0671 37.2181C80.0671 35.1623 78.5097 33.5634 76.5072 33.5634C74.2823 33.5634 72.725 35.1623 72.725 37.2181C72.725 39.274 74.2823 40.8729 76.5072 40.8729ZM76.5072 39.7308C74.9498 39.7308 74.06 38.5887 74.06 37.2181C74.06 35.8476 74.9498 34.7055 76.5072 34.7055C77.8422 34.7055 78.732 35.8476 78.732 37.2181C78.732 38.5887 77.8422 39.7308 76.5072 39.7308Z" fill="#056D7B"/>
<path fill-rule="evenodd" clip-rule="evenodd" d="M83.6265 40.8729H88.5214V39.7308H84.9615V33.5634H83.6265V40.8729Z" fill="#056D7B"/>
<path fill-rule="evenodd" clip-rule="evenodd" d="M94.9742 40.8729C96.9767 40.8729 98.5341 39.274 98.5341 37.2181C98.5341 35.1623 96.9767 33.5634 94.9742 33.5634C92.7488 33.5634 91.1914 35.1623 91.1914 37.2181C91.1914 39.274 92.7488 40.8729 94.9742 40.8729ZM94.9742 39.7308C93.4163 39.7308 92.5264 38.5887 92.5264 37.2181C92.5264 35.8476 93.4163 34.7055 94.9742 34.7055C96.3092 34.7055 97.199 35.8476 97.199 37.2181C97.199 38.5887 96.3092 39.7308 94.9742 39.7308Z" fill="#056D7B"/>
<path fill-rule="evenodd" clip-rule="evenodd" d="M105.433 40.8729C106.768 40.8729 107.657 40.4161 108.325 39.7308V36.7613H105.433V37.9034H107.212V39.274C106.768 39.5024 106.1 39.7308 105.433 39.7308C104.097 39.7308 103.207 38.8171 103.207 37.2181C103.207 35.8476 104.097 34.7055 105.433 34.7055C106.322 34.7055 106.768 34.9339 107.435 35.3908L108.102 34.477C107.435 33.7918 106.768 33.5634 105.433 33.5634C103.43 33.5634 101.872 35.1623 101.872 37.2181C101.872 39.274 103.207 40.8729 105.433 40.8729Z" fill="#056D7B"/>
<path fill-rule="evenodd" clip-rule="evenodd" d="M113.886 40.8729H114.998V37.9034L117.891 33.5634H116.333L114.554 36.7613L112.551 33.5634H110.993L113.886 37.9034V40.8729Z" fill="#056D7B"/>
<path fill-rule="evenodd" clip-rule="evenodd" d="M77.6188 26.0255V20.0865C80.5112 19.4013 82.5137 16.6602 82.5137 13.6907C82.5137 10.4927 80.5112 7.98005 77.6188 7.29481V1.12737C83.8487 1.81264 88.5213 7.29481 88.5213 13.6907C88.5213 20.0865 83.8487 25.3403 77.6188 26.0255Z" fill="#11A083"/>
<path fill-rule="evenodd" clip-rule="evenodd" d="M1.30172 23.056C0.856726 21.6855 1.07922 20.0865 1.96922 18.9444C2.19172 18.716 2.19172 18.716 2.19172 18.716L15.5416 6.15268H2.19172V1.12737H17.9891C19.3241 1.12737 20.6591 2.04106 21.3266 3.18318C21.9941 4.55373 21.9941 6.38109 20.8816 7.75164L20.6591 7.98005L7.30917 20.5434H21.3266V25.5687H4.8617C3.30421 25.5687 1.74672 24.655 1.30172 23.056ZM102.316 1.12737H108.768C110.771 1.12737 112.774 2.04106 114.109 3.41161C115.444 4.78215 116.333 6.60956 116.333 8.66535V13.0054V21.6855V25.5687H115.221H112.551H110.326V21.6855V13.0054V10.2643C110.326 8.66535 108.991 7.29481 107.433 7.29481H102.316V1.12737ZM119.671 13.6907C119.671 6.38109 124.566 1.12737 131.463 1.12737C138.139 1.12737 141.921 6.15268 141.921 12.5485V15.518H125.678C126.346 19.1728 129.461 21.2286 132.576 21.2286C134.801 21.2286 137.026 20.315 138.805 18.9444L141.476 22.8276C139.028 24.8834 135.468 26.254 132.131 26.254C124.566 26.254 119.671 20.5434 119.671 13.6907ZM131.463 5.69585C128.348 5.69585 126.346 7.75164 125.901 10.7211H136.136C135.913 7.52322 133.911 5.69585 131.463 5.69585ZM64.0462 13.6907C64.0462 7.29481 68.9411 1.81264 74.9487 1.12737V7.29481C72.0563 7.98005 70.0538 10.4927 70.0538 13.6907C70.0538 16.6602 72.0563 19.4013 74.9487 20.0865V26.0255C68.9411 25.3403 64.0462 20.0865 64.0462 13.6907ZM63.1563 1.12737H56.7041C54.7015 1.12737 52.6989 2.04106 51.3639 3.41161C50.0289 4.78215 49.1389 6.60956 49.1389 8.66535V13.0054V21.6855V25.5687H50.2514H52.9214H55.1462V21.6855V13.0054V10.2643C55.1462 8.66535 56.4812 7.29481 58.0391 7.29481H63.1563V1.12737ZM23.3291 13.6907C23.3291 6.38109 28.224 1.12737 35.1215 1.12737C41.7965 1.12737 45.5789 6.15268 45.5789 12.5485V15.518H29.3365C30.004 19.1728 32.8965 21.2286 36.234 21.2286C38.4589 21.2286 40.684 20.315 42.4639 18.9444L45.1339 22.8276C42.6865 24.8834 39.1265 26.254 35.789 26.254C28.224 26.254 23.3291 20.5434 23.3291 13.6907ZM35.1215 5.69585C32.0065 5.69585 30.004 7.75164 29.3365 10.7211H39.794C39.5715 7.52322 37.569 5.69585 35.1215 5.69585Z" fill="#5B5B5B"/>
</svg>
