<svg width="195" height="196" viewBox="0 0 195 196" fill="none" xmlns="http://www.w3.org/2000/svg">
<path d="M96.5842 33.3371C132.097 32.7146 161.396 61.1213 162.016 96.7943C162.636 132.467 134.342 161.883 98.8294 162.506C63.3163 163.128 34.0176 134.722 33.3975 99.0488C32.7775 63.3758 61.0711 33.9596 96.5842 33.3371Z" stroke="#056D7B" stroke-width="2"/>
<path d="M98.9225 23.6486L112.513 8.82061L112.52 8.76346L101.253 7.34101L101.482 5.51236L115.139 7.23655L114.91 9.0652L101.32 23.8932L101.313 23.9503L112.864 25.4087L112.635 27.2374L98.6936 25.4772L98.9225 23.6486Z" fill="#2B2732"/>
<path d="M128.772 10.913L139.77 15.8444L139.022 17.5273L129.857 13.4178L127.004 19.8338L134.598 23.2388L133.849 24.9217L126.256 21.5167L123.169 28.4586L132.334 32.5681L131.586 34.251L120.588 29.3196L128.772 10.913Z" fill="#2B2732"/>
<path d="M152.754 23.7867L157.586 28.0802C159.361 29.6577 160.324 31.2307 160.474 32.7992C160.638 34.3804 160.118 35.8539 158.914 37.2199C158.002 38.2551 156.979 38.9096 155.844 39.1832C154.71 39.4569 153.508 39.2994 152.24 38.7109L149.976 48.2343L148.257 46.7077L150.49 37.6555C150.362 37.5681 150.234 37.4671 150.106 37.3526C149.977 37.2382 149.848 37.1237 149.719 37.0092L146.39 34.0514L140.955 40.2197L139.452 38.8839L152.754 23.7867ZM150.828 35.5334C152.188 36.742 153.396 37.3411 154.452 37.3306C155.522 37.333 156.494 36.8381 157.368 35.8459C158.217 34.8826 158.581 33.8606 158.461 32.7799C158.341 31.6992 157.608 30.561 156.262 29.3651L153.041 26.5028L147.606 32.6711L150.828 35.5334Z" fill="#2B2732"/>
<path d="M159.474 61.7137C158.87 60.6227 158.507 59.5299 158.383 58.4352C158.259 57.3406 158.367 56.2703 158.707 55.2243C159.073 54.1858 159.677 53.2014 160.518 52.2712C161.376 51.3317 162.483 50.4846 163.836 49.7298L165.19 48.975C166.477 48.2575 167.72 47.7955 168.918 47.5889C170.141 47.3898 171.272 47.4181 172.31 47.6739C173.365 47.9204 174.322 48.386 175.181 49.0706C176.05 49.772 176.781 50.6599 177.375 51.7341C177.969 52.8084 178.328 53.8929 178.452 54.9875C178.602 56.0896 178.502 57.1552 178.153 58.1844C177.83 59.2211 177.256 60.1999 176.431 61.1208C175.623 62.0323 174.567 62.8515 173.263 63.5783L171.909 64.3331C170.555 65.0879 169.25 65.5741 167.992 65.7919C166.761 66.0171 165.61 66.0111 164.539 65.7739C163.484 65.5275 162.522 65.0535 161.654 64.3521C160.794 63.6675 160.067 62.788 159.474 61.7137ZM161.078 60.8192C161.524 61.6249 162.074 62.2843 162.729 62.7973C163.385 63.3103 164.131 63.6518 164.968 63.8217C165.806 63.9917 166.716 63.978 167.701 63.7807C168.702 63.574 169.77 63.1539 170.907 62.5203L172.261 61.7655C173.314 61.1785 174.163 60.5186 174.807 59.786C175.478 59.0609 175.954 58.3012 176.237 57.5069C176.536 56.7033 176.642 55.8866 176.555 55.0568C176.468 54.227 176.207 53.4176 175.771 52.6287C175.325 51.823 174.775 51.1636 174.12 50.6506C173.464 50.1376 172.726 49.7915 171.906 49.6122C171.085 49.4329 170.191 49.4373 169.223 49.6253C168.273 49.804 167.262 50.1915 166.192 50.7879L164.839 51.5426C163.719 52.1669 162.807 52.851 162.103 53.5948C161.425 54.346 160.936 55.1234 160.637 55.927C160.338 56.7306 160.223 57.552 160.293 58.3911C160.38 59.2209 160.642 60.0303 161.078 60.8192Z" fill="#2B2732"/>
<path d="M187.338 76.0016L187.745 78.9686L171.802 91.4653L171.809 91.5223L189.138 89.1245L189.413 91.1215L169.527 93.873L169.143 91.0773L185.347 78.3701L185.339 78.3131L167.726 80.7502L167.452 78.7532L187.338 76.0016Z" fill="#2B2732"/>
<path d="M189.085 108.935L186.764 120.804L184.963 120.448L186.897 110.558L180.031 109.204L178.428 117.399L176.628 117.044L178.23 108.849L170.801 107.384L168.867 117.274L167.066 116.919L169.387 105.05L189.085 108.935Z" fill="#2B2732"/>
<path d="M171.486 149.61L175.39 144.271L176.869 145.362L167.874 157.665L166.394 156.574L170.298 151.235L155.597 140.395L156.785 138.77L171.486 149.61Z" fill="#2B2732"/>
<path d="M158.435 167.354L148.82 174.638L147.715 173.167L155.727 167.097L151.513 161.488L144.874 166.517L143.769 165.046L150.408 160.016L145.848 153.947L137.836 160.018L136.73 158.546L146.345 151.262L158.435 167.354Z" fill="#2B2732"/>
<path d="M121.751 165.559C122.892 165.17 124 165.015 125.077 165.094C126.153 165.173 127.165 165.476 128.111 166.005C129.063 166.552 129.92 167.324 130.681 168.322C131.449 169.337 132.082 170.581 132.58 172.054L133.078 173.526C133.552 174.926 133.783 176.236 133.772 177.456C133.767 178.695 133.546 179.804 133.111 180.784C132.681 181.782 132.063 182.642 131.257 183.363C130.433 184.09 129.46 184.645 128.338 185.028C127.306 185.38 126.33 185.54 125.411 185.509C124.48 185.502 123.621 185.349 122.833 185.05C122.046 184.751 121.354 184.318 120.758 183.751C120.15 183.208 119.642 182.571 119.233 181.838L121.242 181.153C121.571 181.649 121.961 182.084 122.41 182.457C122.842 182.837 123.333 183.126 123.884 183.323C124.442 183.539 125.044 183.647 125.691 183.65C126.338 183.652 127.023 183.53 127.747 183.283C128.58 182.999 129.297 182.582 129.898 182.032C130.5 181.482 130.962 180.817 131.284 180.038C131.587 179.266 131.734 178.385 131.722 177.395C131.716 176.424 131.517 175.356 131.123 174.193L130.625 172.72C130.213 171.503 129.705 170.479 129.102 169.651C128.481 168.829 127.812 168.196 127.096 167.75C126.362 167.311 125.59 167.058 124.779 166.99C123.969 166.921 123.156 167.026 122.342 167.304C120.875 167.804 119.849 168.591 119.263 169.662C118.658 170.741 118.426 171.935 118.567 173.245L116.558 173.931C116.413 173.027 116.408 172.147 116.543 171.29C116.665 170.458 116.944 169.673 117.381 168.936C117.819 168.199 118.401 167.533 119.129 166.94C119.846 166.372 120.72 165.911 121.751 165.559Z" fill="#2B2732"/>
<path d="M104.377 190.306L102.371 190.248L102.625 181.382L91.4461 181.058L91.1913 189.924L89.1848 189.866L89.7639 169.716L91.7704 169.774L91.4991 179.216L102.678 179.54L102.95 170.098L104.956 170.157L104.377 190.306Z" fill="#2B2732"/>
<path d="M70.8367 186.556L68.087 185.396L65.501 165.253L65.4481 165.231L58.6745 181.427L56.8237 180.646L64.5967 162.06L67.1878 163.153L69.8214 183.629L69.8742 183.651L76.7589 167.19L78.6096 167.97L70.8367 186.556Z" fill="#2B2732"/>
<path d="M49.7792 151.225C50.6793 152.085 51.3514 153.019 51.7954 154.026C52.2394 155.034 52.4546 156.088 52.4412 157.188C52.4006 158.289 52.1172 159.409 51.5909 160.55C51.0513 161.704 50.2478 162.844 49.1802 163.97L48.1126 165.097C47.0978 166.168 46.0495 166.981 44.9679 167.538C43.8593 168.095 42.7716 168.407 41.705 168.474C40.6252 168.555 39.5733 168.398 38.5494 168.003C37.5117 167.594 36.5496 166.966 35.6633 166.119C34.777 165.272 34.1119 164.345 33.6679 163.337C33.1969 162.33 32.975 161.283 33.0023 160.196C33.0026 159.11 33.2594 158.004 33.7725 156.878C34.2725 155.765 35.0365 154.667 36.0646 153.582L37.1322 152.455C38.1998 151.329 39.301 150.473 40.4361 149.888C41.544 149.304 42.6445 148.964 43.7375 148.869C44.8173 148.788 45.8761 148.952 46.9138 149.361C47.9378 149.756 48.8929 150.378 49.7792 151.225ZM48.5139 152.56C47.8492 151.925 47.1278 151.46 46.3498 151.167C45.5718 150.874 44.758 150.772 43.9082 150.861C43.0585 150.95 42.1934 151.237 41.3128 151.72C40.419 152.218 39.524 152.939 38.6278 153.885L37.5602 155.011C36.7299 155.887 36.1161 156.772 35.7189 157.664C35.2946 158.558 35.0658 159.425 35.0325 160.268C34.986 161.125 35.1276 161.936 35.4575 162.702C35.7874 163.468 36.2777 164.162 36.9286 164.784C37.5933 165.419 38.3147 165.883 39.0927 166.176C39.8707 166.469 40.6779 166.578 41.5145 166.503C42.351 166.428 43.203 166.156 44.0704 165.686C44.9246 165.23 45.7735 164.557 46.617 163.667L47.6846 162.541C48.5676 161.609 49.2345 160.683 49.6851 159.762C50.1087 158.842 50.3437 157.953 50.3902 157.096C50.4368 156.24 50.3017 155.421 49.985 154.642C49.6551 153.876 49.1647 153.182 48.5139 152.56Z" fill="#2B2732"/>
<path d="M19.7161 146.898L18.7679 145.121L34.8432 136.47L30.3731 128.094L31.9908 127.223L37.4091 137.376L19.7161 146.898Z" fill="#2B2732"/>
<path d="M27.6547 112.445C27.8714 113.674 27.8611 114.826 27.6236 115.901C27.3862 116.977 26.9372 117.954 26.2766 118.832C25.5938 119.694 24.7039 120.427 23.6068 121.032C22.4908 121.64 21.1705 122.079 19.6457 122.351L18.1209 122.622C16.6714 122.88 15.3468 122.911 14.1473 122.714C12.9257 122.503 11.8656 122.106 10.9671 121.525C10.0497 120.948 9.29561 120.195 8.70474 119.266C8.11055 118.319 7.70675 117.241 7.49335 116.031C7.27995 114.821 7.29197 113.678 7.52939 112.603C7.74466 111.512 8.18426 110.537 8.8482 109.678C9.48997 108.803 10.35 108.065 11.4283 107.464C12.4878 106.866 13.7517 106.437 15.22 106.175L16.7448 105.904C18.2696 105.633 19.6617 105.6 20.921 105.805C22.1581 105.994 23.2448 106.376 24.181 106.95C25.0983 107.528 25.8541 108.29 26.4483 109.238C27.0392 110.166 27.4413 111.235 27.6547 112.445ZM25.8475 112.766C25.6875 111.859 25.3807 111.056 24.9273 110.356C24.4739 109.657 23.8789 109.09 23.1421 108.656C22.4054 108.222 21.5397 107.937 20.5452 107.802C19.5317 107.67 18.385 107.718 17.1049 107.946L15.5801 108.217C14.3941 108.428 13.3777 108.774 12.5308 109.257C11.6617 109.723 10.9649 110.286 10.4404 110.944C9.89708 111.606 9.53208 112.344 9.34543 113.157C9.15878 113.97 9.14382 114.821 9.30053 115.709C9.46058 116.617 9.7673 117.42 10.2207 118.119C10.6741 118.819 11.2597 119.387 11.9777 119.825C12.6956 120.263 13.5424 120.551 14.5182 120.689C15.4751 120.831 16.556 120.795 17.7608 120.58L19.2856 120.309C20.5468 120.085 21.6308 119.736 22.5375 119.263C23.4221 118.774 24.136 118.198 24.6794 117.536C25.2227 116.874 25.5971 116.135 25.8026 115.319C25.9892 114.506 26.0042 113.655 25.8475 112.766Z" fill="#2B2732"/>
<path d="M27.1979 85.9384C26.9793 87.1278 26.573 88.1751 25.979 89.0802C25.385 89.9852 24.6273 90.7233 23.7058 91.2944C22.7656 91.8621 21.6762 92.2361 20.4377 92.4166C19.1804 92.5935 17.7904 92.5409 16.2676 92.2587L14.7447 91.9765C13.2971 91.7083 12.0457 91.2714 10.9905 90.6659C9.91658 90.0569 9.0601 89.3223 8.42112 88.462C7.76334 87.5983 7.31785 86.6372 7.08464 85.5788C6.85491 84.5016 6.84759 83.3777 7.06268 82.2071C7.2639 81.1121 7.60411 80.16 8.0833 79.3508C8.54717 78.5192 9.10128 77.8312 9.74565 77.2868C10.39 76.7425 11.1058 76.3382 11.8931 76.0742C12.6804 75.8101 13.4827 75.6757 14.3001 75.671L13.915 77.7666C13.3232 77.8131 12.7552 77.9421 12.2108 78.1536C11.67 78.3462 11.1776 78.6454 10.7337 79.0512C10.2744 79.4347 9.88411 79.9187 9.56282 80.5034C9.245 81.0693 9.01323 81.7486 8.86752 82.5416C8.70793 83.41 8.72029 84.242 8.90459 85.0376C9.0889 85.8331 9.44095 86.5621 9.96075 87.2246C10.484 87.8682 11.1785 88.4264 12.0442 88.8991C12.9099 89.3719 13.935 89.7181 15.1194 89.9376L16.6422 90.2198C17.9019 90.4532 19.0388 90.5077 20.0532 90.3833C21.0522 90.2365 21.9198 89.9581 22.6562 89.5479C23.396 89.1188 24.0028 88.5675 24.4765 87.8939C24.9314 87.2169 25.2369 86.4535 25.393 85.6039C25.5596 84.6977 25.5865 83.8633 25.474 83.1005C25.3614 82.3378 25.087 81.6623 24.6508 81.0738C24.2181 80.4665 23.6141 79.9447 22.8389 79.5082C22.0637 79.0717 21.0986 78.7171 19.9433 78.4445L18.8505 84.3915L17.0457 84.0571L18.4768 76.2693L19.1254 76.3895C20.7422 76.6891 22.1175 77.1392 23.2514 77.7397C24.3699 78.3179 25.2615 79.02 25.9262 79.846C26.5756 80.6496 27.0092 81.5695 27.2271 82.6055C27.4262 83.638 27.4164 84.749 27.1979 85.9384Z" fill="#2B2732"/>
<path d="M27.9127 60.6744L12.9944 61.1676L14.0912 59.2099L26.6444 58.7683L20.2216 48.2671L21.2902 46.3596L28.8969 58.9175L35.2702 62.518L34.2859 64.2749L27.9127 60.6744Z" fill="#2B2732"/>
</svg>
