<svg width="4302" height="68" viewBox="0 0 4302 68" fill="none" xmlns="http://www.w3.org/2000/svg">
<path opacity="0.4" d="M1 67C144.363 51.4966 142.598 44.4145 368.009 49.7248C593.419 55.035 628.267 20.6441 841.326 31.1208C1028.15 40.3072 1171.28 1 1381.25 1C1527.84 1 1660.92 63.0134 1832.07 43.5236C2008.47 23.4367 2093.65 12.3276 2247.6 39.094C2352.59 57.3473 2530.39 66.1141 2647.7 66.1141C2786.23 66.1141 2913.18 28.906 3053.08 28.906C3229.83 28.906 3274.52 38.208 3449.2 46.1812C3535.57 50.1234 3747.4 63.4564 3884.59 63.4564C4143.86 63.4564 4301 7.20134 4301 7.20134" stroke="white" stroke-width="2"/>
</svg>
